<svg xmlns="http://www.w3.org/2000/svg" width="390" height="1030" viewBox="0 0 390 1030" role="img" aria-labelledby="title desc">
<title id="title">部门流转与任务协作</title>
<desc id="desc">上半图按销售产品研发交付传递，下半图中专业角色与Agent围绕任务负责人协作。连线表示信息与协作，不是全部操作都需审批。</desc>
<defs><marker id="ink" viewBox="0 0 10 10" refX="8" refY="5" markerWidth="7" markerHeight="7" orient="auto"><path d="M0 0L10 5L0 10Z" fill="#657586"/></marker><marker id="gold" viewBox="0 0 10 10" refX="8" refY="5" markerWidth="7" markerHeight="7" orient="auto"><path d="M0 0L10 5L0 10Z" fill="#986b2e"/></marker></defs>
<style>text{font-family:"Noto Sans SC","Microsoft YaHei",sans-serif;fill:#1b3654}.title{font-family:"Noto Serif SC","Songti SC",serif;font-size:25px;font-weight:700}.node{font-size:20px;font-weight:700}.body{font-size:17px}.small{font-size:15px;fill:#625f58}.label{font-size:15px;fill:#986b2e;font-weight:700}.white{font-size:19px;fill:#fffdf8;font-weight:700}</style>
<rect width="390" height="1030" fill="#f6f2e9"/>
<text x="24" y="33" class="label" text-anchor="start"><tspan x="24" dy="0">03 / 组织协作</tspan></text><text x="24" y="73" class="title" text-anchor="start"><tspan x="24" dy="0">客户需求如何变成</tspan><tspan x="24" dy="34">可交付的方案</tspan></text><rect x="24" y="139" width="342" height="227" rx="8" fill="#eee9df" stroke="#c7beae"/><text x="42" y="172" class="node" text-anchor="start"><tspan x="42" dy="0">沿部门逐级流转</tspan></text><rect x="42" y="190" width="132" height="70" rx="8" fill="#fffdf8" stroke="#c7beae"/><text x="108" y="218" class="node" text-anchor="middle"><tspan x="108" dy="0">销售</tspan></text><text x="108" y="243" class="small" text-anchor="middle"><tspan x="108" dy="0">客户背景</tspan></text><rect x="214" y="190" width="132" height="70" rx="8" fill="#fffdf8" stroke="#c7beae"/><text x="280" y="218" class="node" text-anchor="middle"><tspan x="280" dy="0">产品</tspan></text><text x="280" y="243" class="small" text-anchor="middle"><tspan x="280" dy="0">需求定义</tspan></text><rect x="214" y="283" width="132" height="70" rx="8" fill="#fffdf8" stroke="#c7beae"/><text x="280" y="311" class="node" text-anchor="middle"><tspan x="280" dy="0">研发</tspan></text><text x="280" y="336" class="small" text-anchor="middle"><tspan x="280" dy="0">实现条件</tspan></text><rect x="42" y="283" width="132" height="70" rx="8" fill="#fffdf8" stroke="#c7beae"/><text x="108" y="311" class="node" text-anchor="middle"><tspan x="108" dy="0">交付</tspan></text><text x="108" y="336" class="small" text-anchor="middle"><tspan x="108" dy="0">约束验收</tspan></text><path d="M178 225H206" fill="none" stroke="#657586" stroke-width="2" marker-end="url(#ink)"/><path d="M280 264V275" fill="none" stroke="#657586" stroke-width="2" marker-end="url(#ink)"/><path d="M206 318H180" fill="none" stroke="#657586" stroke-width="2" marker-end="url(#ink)"/><rect x="24" y="395" width="342" height="552" rx="8" fill="#e7edf1" stroke="#c7beae"/><text x="42" y="428" class="node" text-anchor="start"><tspan x="42" dy="0">围绕任务负责人协作</tspan></text><rect x="42" y="448" width="306" height="57" rx="8" fill="#fffdf8" stroke="#c7beae"/><text x="195" y="473" class="small" text-anchor="middle"><tspan x="195" dy="0">共同背景</tspan><tspan x="195" dy="22">目标、约束、历史决定</tspan></text><path d="M195 509V637" fill="none" stroke="#657586" stroke-width="2" marker-end="url(#ink)"/><path d="M130 610L156 637" fill="none" stroke="#657586" stroke-width="2" marker-end="url(#ink)"/><path d="M260 610L234 637" fill="none" stroke="#657586" stroke-width="2" marker-end="url(#ink)"/><path d="M130 752L156 725" fill="none" stroke="#657586" stroke-width="2" marker-end="url(#ink)"/><path d="M260 752L234 725" fill="none" stroke="#657586" stroke-width="2" marker-end="url(#ink)"/><rect x="42" y="536" width="125" height="70" rx="8" fill="#fffdf8" stroke="#c7beae"/><text x="104.5" y="564" class="node" text-anchor="middle"><tspan x="104.5" dy="0">销售</tspan></text><text x="104.5" y="589" class="small" text-anchor="middle"><tspan x="104.5" dy="0">客户条件</tspan></text><rect x="223" y="536" width="125" height="70" rx="8" fill="#fffdf8" stroke="#c7beae"/><text x="285.5" y="564" class="node" text-anchor="middle"><tspan x="285.5" dy="0">产品</tspan></text><text x="285.5" y="589" class="small" text-anchor="middle"><tspan x="285.5" dy="0">范围取舍</tspan></text><rect x="42" y="756" width="125" height="70" rx="8" fill="#fffdf8" stroke="#c7beae"/><text x="104.5" y="784" class="node" text-anchor="middle"><tspan x="104.5" dy="0">研发</tspan></text><text x="104.5" y="809" class="small" text-anchor="middle"><tspan x="104.5" dy="0">技术判断</tspan></text><rect x="223" y="756" width="125" height="70" rx="8" fill="#fffdf8" stroke="#c7beae"/><text x="285.5" y="784" class="node" text-anchor="middle"><tspan x="285.5" dy="0">交付</tspan></text><text x="285.5" y="809" class="small" text-anchor="middle"><tspan x="285.5" dy="0">兑现承诺</tspan></text><rect x="85" y="643" width="220" height="76" rx="8" fill="#1b3654" stroke="#1b3654"/><text x="195" y="676" class="white" text-anchor="middle"><tspan x="195" dy="0">任务负责人</tspan></text><text x="195" y="701" text-anchor="middle" font-size="15" style="fill:#fffdf8">资源、冲突与验收</text><path d="M195 864V725" fill="none" stroke="#657586" stroke-width="2" marker-end="url(#ink)"/><rect x="64" y="870" width="262" height="50" rx="8" fill="#f0e3ca" stroke="#c7beae"/><text x="195" y="901" class="small" text-anchor="middle"><tspan x="195" dy="0">Agent：检索、整理与授权执行</tspan></text><text x="24" y="980" class="small" text-anchor="start"><tspan x="24" dy="0">按权限共享，保留专业分工与验收。</tspan><tspan x="24" dy="27">作者示意 · 连线为协作，不是逐层审批。</tspan></text>
</svg>
